# xmcd CD database file
#
# Track frame offsets:
#	150
#	24966
#	46980
#	70589
#	84976
#	109229
#	127060
#	146290
#	167695
#	184793
#
# Disc length: 2664 seconds
#
# Revision: 0
# Processed by: cddbd v1.5.1PL2 Copyright (c) Steve Scherf et al.
# Submitted via: CDex 1.51
#
DISCID=7c0a660a
DTITLE=6 V 6 - Fire Bottle
DYEAR=2003
DGENRE=Blues
TTITLE0=Too Good Lookin'
TTITLE1=Guitar Jones
TTITLE2=Sugar Mama
TTITLE3=Can't Say No
TTITLE4=Like It This Way
TTITLE5=Red Rocket
TTITLE6=Moondance
TTITLE7=World's In A Tangle
TTITLE8=Tryin' To Make A Livin'
TTITLE9=Let It Be
EXTD=YEAR: 2003
EXTT0=
EXTT1=
EXTT2=
EXTT3=
EXTT4=
EXTT5=
EXTT6=
EXTT7=
EXTT8=
EXTT9=
PLAYORDER=
